<svg id="SvgjsSvg1013" xmlns="http://www.w3.org/2000/svg"
  version="1.1" xmlns:xlink="http://www.w3.org/1999/xlink"
  xmlns:svgjs="http://svgjs.com/svgjs" width="20" height="35" >
  <path id="icon-fb" d="M968.655 26.9932L965.5459999999999 26.9932L965.5459999999999 19.9963L963.991 19.9963L963.991 17.239800000000002L965.5459999999999 17.239800000000002L965.5459999999999 15.585000000000003C965.5459999999999 13.337900000000003 966.4229999999999 12.000600000000002 968.915 12.000600000000002L970.99 12.000600000000002L970.99 14.756500000000003L969.694 14.756500000000003C968.723 14.756500000000003 968.659 15.142300000000002 968.659 15.860400000000002L968.655 17.239800000000002L971.006 17.239800000000002L970.73 19.9963L968.655 19.9963Z " fill="#ffffff" transform="matrix(1,0,0,1,-963,-12)"></path>
  <path id="icon-google" d="M1171 14.9505L1168.54 14.9505L1168.54 12.4917L1167.8 12.4917L1167.8 14.9505L1165.34 14.9505L1165.34 15.6886L1167.8 15.6886L1167.8 17.9016L1168.54 17.9238L1168.54 15.688600000000001L1171 15.688600000000001ZM1162.82 20.6336C1162.3899999999999 20.3365 1161.57 19.6139 1161.57 19.1888C1161.57 18.6914 1161.72 18.4462 1162.48 17.8606C1163.26 17.259700000000002 1163.81 16.416400000000003 1163.81 15.4342C1163.81 14.266 1163.28 13.1267 1162.29 12.7517L1163.79 12.7517L1164.4099999999999 12.4917C1164.4099999999999 12.4917 1161.31 11.9995 1160.1299999999999 11.9995C1158.01 11.9995 1156.02 13.576899999999998 1156.02 15.404599999999999C1156.02 17.272199999999998 1157.46 18.780199999999997 1159.61 18.780199999999997C1159.76 18.780199999999997 1159.9099999999999 18.776799999999998 1160.05 18.767099999999996C1159.9099999999999 19.029999999999994 1159.81 19.327099999999994 1159.81 19.634899999999995C1159.81 20.154499999999995 1160.1 20.575499999999995 1160.45 20.918099999999995C1160.18 20.918099999999995 1159.92 20.926099999999995 1159.64 20.926099999999995C1157.0200000000002 20.926099999999995 1155 22.568899999999996 1155 24.272599999999994C1155 25.950199999999995 1157.21 26.999499999999994 1159.83 26.999499999999994C1162.82 26.999499999999994 1164.47 25.331099999999992 1164.47 23.653499999999994C1164.47 22.308899999999994 1164.06 21.503099999999993 1162.82 20.634699999999995ZM1159.82 26.2563C1158.01 26.2563 1156.7 25.127299999999998 1156.7 23.772399999999998C1156.7 22.443699999999996 1158.32 21.3375 1160.13 21.356799999999996C1160.5600000000002 21.360299999999995 1160.95 21.427999999999997 1161.3100000000002 21.541799999999995C1162.2900000000002 22.214999999999996 1163.0000000000002 22.594499999999996 1163.2000000000003 23.362699999999997C1163.2300000000002 23.518099999999997 1163.2500000000002 23.678599999999996 1163.2500000000002 23.841299999999997C1163.2500000000002 25.196799999999996 1162.3700000000001 26.256299999999996 1159.8200000000002 26.256299999999996ZM1160.3 18.3056C1159.08 18.2703 1157.93 16.967799999999997 1157.72 15.395499999999998C1157.51 13.823799999999999 1158.32 12.620899999999999 1159.54 12.656699999999999C1160.75 12.692599999999999 1161.9099999999999 13.953599999999998 1162.12 15.525299999999998C1162.33 17.096999999999998 1161.51 18.342 1160.3 18.3056Z " fill="#ffffff" transform="matrix(1,0,0,1,-1155,-11)"></path>
  <path id="icon-p" d="M1009.36 12.0046C1005.14 12.0046 1003 14.9352 1003 17.378700000000002C1003 18.858200000000004 1003.58 20.1749 1004.83 20.664900000000003C1005.0300000000001 20.745700000000003 1005.21 20.667700000000004 1005.2700000000001 20.449800000000003C1005.3100000000001 20.299000000000003 1005.4100000000001 19.918300000000002 1005.45 19.759500000000003C1005.51 19.543900000000004 1005.49 19.468200000000003 1005.32 19.2798C1004.97 18.8718 1004.74 18.3426 1004.74 17.5926C1004.74 15.4189 1006.42 13.4727 1009.12 13.4727C1011.51 13.4727 1012.82 14.8845 1012.82 16.769199999999998C1012.82 19.249699999999997 1011.69 21.343799999999998 1010 21.343799999999998C1009.07 21.343799999999998 1008.37 20.5994 1008.6 19.6861C1008.86 18.597 1009.38 17.4208 1009.38 16.6338C1009.38 15.9299 1008.99 15.342 1008.18 15.342C1007.2299999999999 15.342 1006.4699999999999 16.2941 1006.4699999999999 17.569300000000002C1006.4699999999999 18.381300000000003 1006.7499999999999 18.930400000000002 1006.7499999999999 18.930400000000002C1006.7499999999999 18.930400000000002 1005.7799999999999 22.9189 1005.5999999999999 23.6182C1005.2599999999999 25.009600000000002 1005.55 26.715000000000003 1005.5799999999999 26.887400000000003C1005.5899999999999 26.989300000000004 1005.7299999999999 27.013700000000004 1005.79 26.9369C1005.88 26.8259 1007.01 25.472800000000003 1007.4 24.1213C1007.5 23.738300000000002 1008.02 21.756300000000003 1008.02 21.756300000000003C1008.3299999999999 22.3271 1009.23 22.828400000000002 1010.1999999999999 22.828400000000002C1013.06 22.828400000000002 1014.9999999999999 20.3075 1014.9999999999999 16.933100000000003C1014.9999999999999 14.381500000000003 1012.7599999999999 12.004600000000003 1009.3599999999999 12.004600000000003Z " fill="#ffffff" transform="matrix(1,0,0,1,-1003,-12)"></path>
  <path id="icon-vimeo" d="M1095.94 14.5972C1096.06 13.9177 1096.05 13.2184 1095.64 12.6903C1095.0600000000002 11.9488 1093.8300000000002 11.9215 1092.99 12.053C1092.3 12.1582 1089.99 13.1956 1089.2 15.6766C1090.6000000000001 15.5691 1091.3300000000002 15.778500000000001 1091.19 17.3388C1091.14 17.9909 1090.81 18.705099999999998 1090.45 19.3902C1090.03 20.1812 1089.24 21.7318 1088.21 20.6148C1087.29 19.607 1087.3600000000001 17.682499999999997 1087.14 16.401C1087.0200000000002 15.6835 1086.9 14.7866 1086.67 14.0475C1086.47 13.4118 1086.01 12.6442 1085.45 12.478C1084.8400000000001 12.2988 1084.1000000000001 12.5788 1083.66 12.8399C1082.27 13.6708 1081.2 14.853200000000001 1080 15.828L1080 15.918999999999999C1080.24 16.150699999999997 1080.3 16.531299999999998 1080.65 16.5826C1081.48 16.7072 1082.27 15.798399999999999 1082.8300000000002 16.743C1083.16 17.321199999999997 1083.2700000000002 17.9545 1083.4800000000002 18.5765C1083.7700000000002 19.4056 1083.9900000000002 20.308699999999998 1084.2300000000002 21.2618C1084.6200000000003 22.8773 1085.1100000000004 25.2907 1086.4900000000002 25.881300000000003C1087.1900000000003 26.183500000000002 1088.2500000000002 25.780000000000005 1088.7800000000002 25.457400000000003C1090.2300000000002 24.589600000000004 1091.3600000000001 23.329700000000003 1092.3200000000002 22.047700000000003C1094.5300000000002 19.015200000000004 1095.7500000000002 15.578800000000003 1095.94 14.597200000000003Z " fill="#ffffff" transform="matrix(1,0,0,1,-1080,-11)"></path>
  <path id="icon-twitter" d="M1058 14.5334C1057.41 14.794 1056.78 14.971 1056.11 15.0507C1056.79 14.644400000000001 1057.31 14.000800000000002 1057.56 13.234300000000001C1056.9199999999998 13.6104 1056.22 13.883600000000001 1055.47 14.031C1054.8700000000001 13.3931 1054.02 12.994200000000001 1053.08 12.994200000000001C1051.26 12.994200000000001 1049.79 14.463400000000002 1049.79 16.277C1049.79 16.534200000000002 1049.82 16.7851 1049.8799999999999 17.0253C1047.1499999999999 16.8887 1044.7299999999998 15.581000000000001 1043.11 13.595100000000002C1042.83 14.079300000000002 1042.6699999999998 14.643800000000002 1042.6699999999998 15.245300000000002C1042.6699999999998 16.384 1043.2499999999998 17.388900000000003 1044.1299999999999 17.9779C1043.59 17.960800000000003 1043.09 17.8134 1042.6399999999999 17.567600000000002C1042.6399999999999 17.581200000000003 1042.6399999999999 17.594900000000003 1042.6399999999999 17.608500000000003C1042.6399999999999 19.199 1043.77 20.526000000000003 1045.28 20.8271C1045 20.902700000000003 1044.71 20.942600000000002 1044.41 20.942600000000002C1044.2 20.942600000000002 1043.99 20.922100000000004 1043.7900000000002 20.884000000000004C1044.2100000000003 22.188200000000005 1045.4200000000003 23.137400000000003 1046.8600000000001 23.163600000000002C1045.7400000000002 24.0439 1044.3200000000002 24.569100000000002 1042.7800000000002 24.569100000000002C1042.5200000000002 24.569100000000002 1042.2600000000002 24.5543 1042.0000000000002 24.523000000000003C1043.4500000000003 25.454500000000003 1045.1800000000003 25.999100000000002 1047.0300000000002 25.999100000000002C1053.0700000000002 25.999100000000002 1056.3700000000001 20.996100000000002 1056.3700000000001 16.6582C1056.3700000000001 16.5154 1056.3700000000001 16.3737 1056.3600000000001 16.2326C1057.0000000000002 15.770000000000001 1057.5600000000002 15.1918 1058.0000000000002 14.533400000000002Z " fill="#ffffff" transform="matrix(1,0,0,1,-1042,-12)"></path>
  <path id="icon-instagram" d="M1130.1 11.9983L1120.8999999999999 11.9983C1119.3 11.9983 1117.9999999999998 13.2992 1117.9999999999998 14.898200000000001L1117.9999999999998 24.1031C1117.9999999999998 25.7021 1119.2999999999997 27.0023 1120.8999999999999 27.0023L1130.1 27.0023C1131.6999999999998 27.0023 1133 25.7021 1133 24.1031L1133 14.898200000000001C1133 13.2992 1131.7 11.9983 1130.1 11.9983ZM1125.5 16.99C1127.58 16.99 1128.01 18.9441 1128.01 19.5006C1128.01 20.884 1126.8799999999999 22.010099999999998 1125.5 22.010099999999998C1124.12 22.010099999999998 1122.99 20.883999999999997 1122.99 19.5006C1122.99 18.9441 1123.42 16.99 1125.5 16.99ZM1130.74 13.9906L1131 13.9894L1131 15.982199999999999L1129.02 15.988499999999998L1129.01 13.996199999999998ZM1131.01 23.6717C1131.01 24.412100000000002 1130.41 25.0135 1129.66 25.0135L1121.3400000000001 25.0135C1120.6000000000001 25.0135 1119.9900000000002 24.4121 1119.9900000000002 23.6717L1119.9900000000002 17.9875L1121.9500000000003 17.9875C1121.7700000000002 18.4314 1121.6600000000003 19.038 1121.6600000000003 19.5461C1121.6600000000003 21.6573 1123.3900000000003 23.3753 1125.5100000000002 23.3753C1127.6400000000003 23.3753 1129.3700000000001 21.6573 1129.3700000000001 19.5461C1129.3700000000001 19.038 1129.2600000000002 18.4314 1129.0800000000002 17.9875L1131.0100000000002 17.9875Z " fill="#ffffff" transform="matrix(1,0,0,1,-1118,-11)"></path>

  <path id="icon-envelope" d="M242.481 12.9964C242.968 12.9964 243.178 13.5803 242.791 13.8608L235.499 19.1313C235.196 19.3498 234.77599999999998 19.3498 234.474 19.1313L227.19799999999998 13.860199999999999C226.81199999999998 13.5803 227.021 12.9964 227.509 12.9964ZM235.73 20.3861C235.295 20.7104 234.682 20.709799999999998 234.248 20.3855L226.84699999999998 14.8544C226.50699999999998 14.6 226.00599999999997 14.8293 226.00599999999997 15.239L226.00599999999997 24.004C226.00599999999997 24.5589 226.48299999999998 25.009600000000002 227.07099999999997 25.009600000000002L242.92099999999996 25.009600000000002C243.50999999999996 25.009600000000002 243.98599999999996 24.5589 243.98599999999996 24.004L243.98599999999996 15.237900000000002C243.98599999999996 14.8282 243.48599999999996 14.599400000000001 243.14499999999995 14.853200000000001Z " fill="#ffffff" transform="matrix(1,0,0,1,-226,-12)"></path>
  <path id="icon-telephone" d="M959.361 117.635C962.624 120.89800000000001 965.5459999999999 121.879 965.953 121.938C966.3589999999999 121.99600000000001 967.025 122.122 967.992 121.16C969.1229999999999 120.029 969.2379999999999 119.434 968.6139999999999 118.81099999999999C967.992 118.18799999999999 966.4449999999999 117.246 966.0239999999999 117.00299999999999C965.6029999999998 116.75999999999999 965.2449999999999 116.83799999999998 964.9419999999999 117.04899999999999C964.6389999999999 117.261 964.2889999999999 117.52999999999999 963.9649999999999 117.76499999999999C963.641 117.99899999999998 963.2359999999999 118.09899999999999 962.8009999999999 117.823C962.366 117.547 961.6299999999999 117.02999999999999 960.7969999999999 116.198C959.9649999999999 115.365 959.4479999999999 114.62899999999999 959.1729999999999 114.19399999999999C958.8969999999999 113.75999999999999 958.9959999999999 113.35399999999998 959.2309999999999 113.03099999999999C959.4659999999999 112.70599999999999 959.7339999999999 112.356 959.9459999999999 112.053C960.1569999999999 111.75 960.2349999999999 111.392 959.992 110.972C959.75 110.55099999999999 958.807 109.00399999999999 958.184 108.381C957.5609999999999 107.758 956.967 107.872 955.8349999999999 109.003C954.8689999999999 109.97 954.9999999999999 110.636 955.0579999999999 111.043C955.1159999999999 111.44900000000001 956.0969999999999 114.37100000000001 959.3609999999999 117.635Z " fill="#ffffff" transform="matrix(1,0,0,1,-955,-108)"></path>

  <path id="icon_left" d="M33.00168 459.5C32.99511 460.15422 33.24142 460.81051 33.7406 461.31L48.6901 476.259C49.6755 477.245 51.2731 477.245 52.2585 476.259C53.2438 475.274 53.2438 473.676 52.2585 472.69100000000003L39.06785 459.50000000000006L52.2585 446.3090000000001C53.2438 445.32400000000007 53.2438 443.72600000000006 52.2585 442.7410000000001C51.2731 441.7550000000001 49.6755 441.7550000000001 48.6901 442.7410000000001L33.7406 457.6900000000001C33.24141 458.1894900000001 32.995110000000004 458.8457800000001 33.00168 459.5000000000001Z " fill="#ffffff" transform="matrix(1,0,0,1,-33,-442)"></path>
  <path id="icon-right" d="M1364.99487 459.5C1365.0014 458.84578 1364.75645 458.18949 1364.26 457.69L1349.31 442.741C1348.32 441.755 1346.73 441.755 1345.74 442.741C1344.76 443.726 1344.76 445.324 1345.74 446.30899999999997L1358.931 459.49999999999994L1345.74 472.6909999999999C1344.76 473.67599999999993 1344.76 475.27399999999994 1345.74 476.2589999999999C1346.73 477.2449999999999 1348.32 477.2449999999999 1349.31 476.2589999999999L1364.26 461.3099999999999C1364.75645 460.8105099999999 1365.00141 460.1542199999999 1364.99487 459.4999999999999Z " fill="#ffffff" transform="matrix(1,0,0,1,-1345,-442)"></path>

</svg>